<svg xmlns="http://www.w3.org/2000/svg" width="960" height="960" viewBox="0 0 720 720"><path d="M0 720h720V0H0z" fill="#fff"/><clipPath id="a"><path transform="matrix(1 0 0 -1 0 720)" d="M90 79.2h558v554.4H90z"/></clipPath><g clip-path="url(#a)"><clipPath id="b"><path transform="matrix(1 0 0 -1 405.724 615.202)" d="M-12.071-12.071H12.07V12.07H-12.07z"/></clipPath><g clip-path="url(#b)"><path d="M405.724 622.273a7.071 7.071 0 1 0 0-14.143 7.071 7.071 0 0 0 0 14.143z" fill="#04f704"/><path stroke-linejoin="round" fill="none" stroke="#04f704" d="M405.724 622.273a7.071 7.071 0 1 0 0-14.143 7.071 7.071 0 0 0 0 14.143z"/></g><clipPath id="c"><path transform="matrix(1 0 0 -1 528.323 347.095)" d="M-12.071-12.071H12.07V12.07H-12.07z"/></clipPath><g clip-path="url(#c)"><path d="M528.323 354.166a7.071 7.071 0 1 0 0-14.143 7.071 7.071 0 0 0 0 14.143z" fill="#04f704"/><path stroke-linejoin="round" fill="none" stroke="#04f704" d="M528.323 354.166a7.071 7.071 0 1 0 0-14.143 7.071 7.071 0 0 0 0 14.143z"/></g><clipPath id="d"><path transform="matrix(1 0 0 -1 305.571 127.757)" d="M-12.071-12.071H12.07V12.07H-12.07z"/></clipPath><g clip-path="url(#d)"><path d="M305.571 134.828a7.071 7.071 0 1 0 0-14.143 7.071 7.071 0 0 0 0 14.143z" fill="#04f704"/><path stroke-linejoin="round" fill="none" stroke="#04f704" d="M305.571 134.828a7.071 7.071 0 1 0 0-14.143 7.071 7.071 0 0 0 0 14.143z"/></g><clipPath id="e"><path transform="matrix(1 0 0 -1 189.5 446.636)" d="M-12.071-12.071H12.07V12.07H-12.07z"/></clipPath><g clip-path="url(#e)"><path d="M189.5 453.707a7.071 7.071 0 1 0 0-14.142 7.071 7.071 0 0 0 0 14.142z" fill="#04f704"/><path stroke-linejoin="round" fill="none" stroke="#04f704" d="M189.5 453.707a7.071 7.071 0 1 0 0-14.142 7.071 7.071 0 0 0 0 14.142z"/></g></g><clipPath id="f"><path transform="matrix(1 0 0 -1 0 720)" d="M90 79.2h558v554.4H90z"/></clipPath><g clip-path="url(#f)"><path stroke-linecap="square" stroke-linejoin="round" fill="none" stroke="#929292" d="m548.5 414.556-18.164-63.686-31.424-44.144-37.846-27.288-6.107-4.401-1.942-2.29-9.51-11.667-1.18-.854-12.606-4.96-1.433-.124-19.093 4.288-2.791-1.07-12.534-5.14-.627-1.277-4.006-12.914 2.408-13.331 1.06-.927 36.349-21.308 17.387-28.15-.042-16.558-.134-1.474-10.44-21.703-3.406-2.948-11.517-9.678-31.166-11.188-1.468-.164-52.62 2.562-2.753 1.169-27.268 12.752-1.59 2.52-12.124 20.808-.068 2.985.219 24.082.28 1.428 12.618 20.514.902 1.166 40.897 25.422-1.235 24.05-.952 1.117-4.257 4.255-1.119.962-48.89 8.762-1.418.458-24.3 11.984-1.24.806-44.182 51.34-2.016 4.033-19.095 39.252-.502 1.41-7.585 32.234-.212 1.479.278 51.175 3.055 10.082 12.722 41.753 20.696 33.214.975 1.128 40.234 36.29 29.331 15.37 1.411.496 20.368 5.403 1.275.676 8.847 10.258 1.295.448 78.265-.876 1.252-.575 7.056-7.827 5.507-2.413 33.118-14.405 25.114-16.597 3.11-3.265 36.965-39.6 25.495-62.75.342-1.444 2.031-51.135"/></g><clipPath id="g"><path transform="matrix(1 0 0 -1 0 720)" d="M90 79.2h558v554.4H90z"/></clipPath><g clip-path="url(#g)"><path stroke-linecap="square" stroke-linejoin="round" fill="none" stroke="red" stroke-opacity=".5" d="m405.724 615.202-1.036-.588-1.02-.369-1.006-.15-.991.07-1.965.326-1.967.11-3.968.03-6.842.143-31.247.365-17.966.277-3.042.184-1.491-.096-1.457-.27-1.42-.446-1.377-.632-1.3-.858-1.22-1.089-1.14-1.318-2.176-2.87-1.134-1.214-1.168-1.05-1.206-.889-1.276-.751-1.353-.62-1.431-.488-10.622-2.648-5.986-1.653-2.966-1.206-4.412-2.17-20.35-10.712-3.105-1.872-2.958-2.232-7.005-6.349-28.09-25.327-2.672-2.755-1.239-1.511-1.17-1.61-3.233-5.18-10.36-16.608-2.039-3.194-1.942-3.404-1.775-3.621-1.424-3.847-3.964-13.296-9.04-29.755-.575-2.737-.343-2.885.05-3.112.25-3.337-.139-1.739-.351-1.784-.565-1.829"/></g><clipPath id="h"><path transform="matrix(1 0 0 -1 0 720)" d="M90 79.2h558v554.4H90z"/></clipPath><g clip-path="url(#h)"><path stroke-linecap="square" stroke-linejoin="round" fill="none" stroke="red" stroke-opacity=".5" d="m413.666 609.486-1.85-3.015-1.919-2.466-2.004-1.95-2.112-1.477-2.182-1.11-2.183-.917-3.256-1.06-3.211-.768-4.283-.834-4.358-.626-15.547-1.974-7.222-.887-7.54-.69-6.451-.653-2.694-.397-2.697-.577-2.681-.775-2.606-.971-3.772-1.78-4.983-2.644-8.647-4.637-4.097-1.942-10.117-4.378-8.653-3.763-7.344-3.572-5.72-3.01-4.124-2.38-4.054-2.592-4.096-2.922-2.656-2.133-5.143-4.6-8.984-8.395-5.025-4.88-2.391-2.59-2.291-2.74-2.186-2.923-6.205-9.18-10.014-15.186-2.861-4.658-2.665-4.93-1.622-3.485-2.177-5.5L213.216 468l-4.586-12.577-2.571-6.187-2.304-4.737-2.641-4.725-1.982-3.11-2.32-3.077-2.637-3.027-2.81-2.895-1.462-1.394"/></g><clipPath id="i"><path transform="matrix(1 0 0 -1 0 720)" d="M90 79.2h558v554.4H90z"/></clipPath><g clip-path="url(#i)"><path stroke-linecap="square" stroke-linejoin="round" fill="none" stroke="red" stroke-opacity=".5" d="m422.029 603.807-1.646-3.196-1.722-2.981-1.84-2.682-2.01-2.27-2.159-1.952-2.265-1.79-3.488-2.423-3.429-2.155-3.349-1.815-4.476-2.136-3.442-1.452-4.739-1.696-6.057-1.85-9.497-2.588-12.428-3.324-6.326-1.698-3.77-1.236-3.752-1.519-3.718-1.783-6.116-3.273-3.7-1.937-5.085-2.357-7.7-3.51-9.697-4.78-6.854-3.843-5.31-3.132-3.975-2.524-3.932-2.712-3.862-2.947-3.735-3.151-7.142-6.549-4.694-4.543-3.467-3.722-3.397-4.01-4.406-5.577-4.255-5.71-3.043-4.452-4.86-7.57-6.549-10.622-5.51-9.303-2.569-4.94-7.78-15.457-4.632-8.446-3.015-5.036-3.253-4.913-2.368-3.254-3.911-4.899-4.302-4.922-4.471-4.713-7.32-7.43"/></g><clipPath id="j"><path transform="matrix(1 0 0 -1 0 720)" d="M90 79.2h558v554.4H90z"/></clipPath><g clip-path="url(#j)"><path stroke-linecap="square" stroke-linejoin="round" fill="none" stroke="red" stroke-opacity=".5" d="m431.57 599.747-3.254-6.703-2.555-4.684-1.82-2.924-2.015-2.72-2.23-2.503-3.499-3.436-3.584-3.084-3.614-2.75-4.697-3.278-4.68-2.94-3.672-1.982-13.904-6.765-14.908-6.569-7.552-3.647-17.328-7.796-11.225-5.54-5.055-2.73-6.312-3.692-6.738-4.213-4.028-2.696-6.244-4.523-6.193-4.649-2.437-2.005-3.526-3.267-3.38-3.462-5.46-6.021-3.234-3.838-5.357-6.851-5.299-7.175-5.951-8.488-3.89-5.583-6.13-8.565-4.177-6.27-6.336-9.941-10.635-17.76-4.658-6.945-8.458-12.007-2.77-3.37-5.982-6.847-6.158-6.647-5.869-6.178"/></g><clipPath id="k"><path transform="matrix(1 0 0 -1 0 720)" d="M90 79.2h558v554.4H90z"/></clipPath><g clip-path="url(#k)"><path stroke-linecap="square" stroke-linejoin="round" fill="none" stroke="red" stroke-opacity=".5" d="m441.397 595.523-3.907-8.855-1.713-3.465-2.826-5.096-2.991-4.847-2.16-2.975-2.334-2.712-3.585-3.757-4.759-4.615-3.56-3.25-3.654-3.078-3.784-2.872-7.622-5.29-5.176-3.25-6.446-3.705-7.66-4.305-3.934-1.987-6.635-3.208-5.08-2.764-9.74-5.476-6.031-3.363-3.551-2.186-11.141-7.173-3.758-2.508-6.234-4.528-15.01-11.182-2.398-2.174-3.544-3.561-7.796-8.452-4.24-4.886-4.161-5.229-9.493-12.46-12.33-16.767-13.386-18.991-4.804-6.603-11.945-17.657-3.681-5.344-6.138-9.206-10.286-14.44-5.264-6.662-1.333-1.629"/></g><clipPath id="l"><path transform="matrix(1 0 0 -1 0 720)" d="M90 79.2h558v554.4H90z"/></clipPath><g clip-path="url(#l)"><path stroke-linecap="square" stroke-linejoin="round" fill="none" stroke="red" stroke-opacity=".5" d="m452.378 590.779-4.36-9.795-1.888-3.786-4.077-7.339-3.116-5.404-2.17-3.356-2.273-3.143-2.421-2.967-4.925-5.63-3.471-4.092-3.56-3.741-3.763-3.498-3.931-3.244-6.556-4.873-14.126-10.39-5.24-3.431-5.323-3.192-13.154-7.496-5.01-3.328-8.185-5.794-9.509-6.774-10.086-7.053-4.864-3.757-4.766-3.914-3.523-3.235-3.465-3.473-15.092-15.876-7.686-8.955-4.27-5.388-5.128-6.903-7.984-11.088-9.292-13.532-3.505-4.653-11.186-14.19-4.968-6.836-3.797-5.482-3.648-5.72-4.611-7.65-9.034-15.36-9.446-14.948"/></g><clipPath id="m"><path transform="matrix(1 0 0 -1 0 720)" d="M90 79.2h558v554.4H90z"/></clipPath><g clip-path="url(#m)"><path stroke-linecap="square" stroke-linejoin="round" fill="none" stroke="red" stroke-opacity=".5" d="m464.834 583.152-6.37-12.192-3.209-5.741-3.31-5.444-6.792-10.408-2.403-3.266-3.785-4.654-8.762-10.22-3.769-4.047-3.955-3.808-5.454-4.724-6.607-5.414-15.469-12.264-5.13-4.16-7.87-5.887-5.18-3.629-11.263-7.642-13.252-9.762-5.748-4.585-3.392-2.959-3.35-3.204-4.484-4.633-11.71-12.599-9.436-10.295-3.346-3.876-7.438-9.17-3.068-4.086-10.358-14.495-9.15-13.304-4.675-6.117-5.911-7.688-4.6-6.466-11.58-17.108-3.342-5.381-3.13-5.486-4.725-9.22-4.867-9.186-3.73-6.828"/></g><clipPath id="n"><path transform="matrix(1 0 0 -1 0 720)" d="M90 79.2h558v554.4H90z"/></clipPath><g clip-path="url(#n)"><path stroke-linecap="square" stroke-linejoin="round" fill="none" stroke="red" stroke-opacity=".5" d="M479.206 573.556 472.6 563.53l-4.916-7.938-3.701-5.719-8.865-12.702-2.609-3.26-2.68-3.048-10.767-11.51-6.444-7.139-3.952-3.977-5.454-5.104-6.69-5.897-10.26-9.053-14.189-13.017-3.9-3.223-5.129-3.869-17.552-12.695-4.945-3.886-6.102-5.12-4.746-4.176-3.365-3.366-3.245-3.58-15.734-18.388-4.42-5.506-9.136-11.804-3.911-5.492-3.832-5.728-3.712-6.008-7.363-11.992-3.787-5.848-8.352-12.337-4.511-6.336-4.648-6.425-3.34-4.99-3.087-5.183-2.894-5.351-2.723-5.45-3.603-7.35-5.623-10.763-2.742-5.038"/></g><clipPath id="o"><path transform="matrix(1 0 0 -1 0 720)" d="M90 79.2h558v554.4H90z"/></clipPath><g clip-path="url(#o)"><path stroke-linecap="square" stroke-linejoin="round" fill="none" stroke="red" stroke-opacity=".5" d="m492.903 559.648-8.468-11.097-9.527-12.629-8.327-10.654-2.907-3.254-5.838-6.119-7.027-7.384-5.521-5.704-5.493-5.379-9.637-9.202-8.183-7.54-3.709-3.745-3.736-3.803-5.388-5.12-9.525-8.52-6.714-5.773-16.278-13.583-5.812-4.922-4.735-4.032-3.51-3.258-4.546-4.597-11.041-11.765-3.234-3.629-3.084-3.726-11.48-14.752-5.076-6.659-1.847-2.723-2.562-4.266-3.265-6.057-8.08-15.347-4.923-8.77-4.057-7.154-3.695-5.924-4.105-6.095-7.683-11.144-3.16-5.167-4.053-7.365-12.395-23.632"/></g><clipPath id="p"><path transform="matrix(1 0 0 -1 0 720)" d="M90 79.2h558v554.4H90z"/></clipPath><g clip-path="url(#p)"><path stroke-linecap="square" stroke-linejoin="round" fill="none" stroke="red" stroke-opacity=".5" d="m506.686 544.934-11.255-13.962-3.173-3.612-3.303-3.51-20.59-20.85-16.615-15.663-39.235-37.107-7.024-6.238-3.844-3.712-9.88-9.886-3.912-3.407-3.753-3.269-3.378-3.248-4.31-4.495-12.99-13.812-5.132-5.495-7.1-7.986-3.043-3.8-3.844-5.358-11.016-16.07-3.46-5.686-2.485-4.354-2.948-5.75-4.33-8.587-3.64-6.968-4.558-9.32-2-3.972-1.546-2.65-2.68-4.061-7.072-10.073-2.85-4.512-2.781-4.924-4.88-9.059-7.17-13.057"/></g><clipPath id="q"><path transform="matrix(1 0 0 -1 0 720)" d="M90 79.2h558v554.4H90z"/></clipPath><g clip-path="url(#q)"><path stroke-linecap="square" stroke-linejoin="round" fill="none" stroke="red" stroke-opacity=".5" d="m520.84 528.726-4.955-5.656-5.03-5.404-3.441-3.413-5.224-4.861-5.238-4.574-3.606-2.844-3.645-2.749-3.499-2.866-4.979-4.471-14.061-13.06-17.661-15.65-5.732-5.082-8.486-7.467-10.095-9.39-20.48-19.59-4.729-4.99-7.29-7.86L381 396.82l-5.089-5.901-4.741-5.937-9.045-11.464-8.351-11.26-2.588-3.905-4.061-6.686-5.533-9.486-3.76-6.763-2.625-5.205-3.687-7.493-6.178-11.988-4.014-6.85-2.828-4.539-4.043-5.966-6.144-9.084-2.73-4.307-8.937-14.996"/></g><clipPath id="r"><path transform="matrix(1 0 0 -1 0 720)" d="M90 79.2h558v554.4H90z"/></clipPath><g clip-path="url(#r)"><path stroke-linecap="square" stroke-linejoin="round" fill="none" stroke="red" stroke-opacity=".5" d="m530.364 506.015-6.214-5.165-10.276-8.197-7.121-5.394-17.65-12.82-5.47-3.942-5.432-4.196-5.25-4.288-6.677-5.775-10.888-9.925-8.965-8.115-5.818-4.954-11.561-9.529-2.836-2.624-2.742-2.785-9.362-9.905-7.806-8.338-19.909-21.949-5.109-6.166-6.343-8.074-3.243-4.367-2.3-3.467-10.902-18.044-3.572-6.379-10.796-20.053-5.99-11.105-2.732-4.741-4.151-6.688-3.206-4.798-2.868-3.845-2.904-3.938-8.238-11.688-1.972-2.496"/></g><clipPath id="s"><path transform="matrix(1 0 0 -1 0 720)" d="M90 79.2h558v554.4H90z"/></clipPath><g clip-path="url(#s)"><path stroke-linecap="square" stroke-linejoin="round" fill="none" stroke="red" stroke-opacity=".5" d="m540.023 482.174-3.222-2.211-3.512-2.066-15.293-8.256-5.58-3.438-7.156-4.573-5.672-3.2-7.57-4.308-3.578-2.395-18.652-14.127-4.92-3.944-4.807-4.164-22.277-20.47-12.372-11.366-4.05-4.324-27.24-30.339-4.003-5.093-11.595-15.424-2.228-3.617-3.505-6.212-4.172-7.443-3.462-6.205-2.548-4.934-1.658-3.69-5.283-12.429-1.94-3.717-2.498-4.187-6.197-9.535-8.88-12.662-1.764-2.132-2.387-2.43-4.216-3.805"/></g><clipPath id="t"><path transform="matrix(1 0 0 -1 0 720)" d="M90 79.2h558v554.4H90z"/></clipPath><g clip-path="url(#t)"><path stroke-linecap="square" stroke-linejoin="round" fill="none" stroke="red" stroke-opacity=".5" d="m546.932 458.12-20.971-8.305-3.915-1.788-7.733-3.687-11.286-5.232-5.288-2.75-3.405-2.007-3.328-2.21-14.768-10.391-4.825-3.829-9.51-8.098-7.75-6.856-5.875-5.691-7.015-6.774-6.858-6.426-7.681-7.707-6.715-7.084-7.939-8.651-8.277-9.416-5.279-6.467-4.004-5.197-5.563-7.743-6.104-8.616-2.252-3.636-3.359-6.15-6.435-12.281-1.649-3.727-2.4-6.16-2.065-6.021-1.932-5.515-3.068-7.989-1.879-5.122-1.395-3.064-1.211-2.163-1.302-1.908-2.4-2.885-1.506-1.434-4.03-3.491-1.055-.795"/></g><clipPath id="u"><path transform="matrix(1 0 0 -1 0 720)" d="M90 79.2h558v554.4H90z"/></clipPath><g clip-path="url(#u)"><path stroke-linecap="square" stroke-linejoin="round" fill="none" stroke="red" stroke-opacity=".5" d="m547.753 433.703-6.058-1.801-6.153-1.984-4.127-1.11-4.103-1.043-4.01-1.21-5.836-2.06-5.625-2.232-5.424-2.294-3.49-1.727-3.382-2.024-8.175-5.15-7.9-5.005-4.653-3.226-4.51-3.362-4.335-3.487-5.558-4.886-11.262-10.339-5.733-5.658-8.116-8.27-5.102-5.249-3.962-3.805-6.81-6.372-3.97-4.156-5.049-5.685-12.367-14.644-3.165-4.034-8.573-11.604-2.514-3.681-3.08-4.946-6.53-11.125-1.886-3.947-2.261-5.355-1.965-5.214-1.249-3.848-1.005-3.892-1.875-8.97-2.864-12.749-1.08-3.313-.922-2.256-1.03-1.84-2.637-3.819-1.282-1.415-1.375-1.213-2.01-1.47-1.673-1.002-1.849-.848-2.064-.597-2.353-.393"/></g><clipPath id="v"><path transform="matrix(1 0 0 -1 0 720)" d="M90 79.2h558v554.4H90z"/></clipPath><g clip-path="url(#v)"><path stroke-linecap="square" stroke-linejoin="round" fill="none" stroke="red" stroke-opacity=".5" d="m547.03 408.758-1.914.214-3.989.105-4.177-.311-4.155-.644-4.08-.94-5.862-1.604-9.08-2.808-3.432-1.266-3.332-1.477-3.231-1.655-3.129-1.815-9.2-5.747-6.015-3.983-5.783-4.126-4.156-3.25-5.46-4.536-5.376-4.777-11.966-11.11-5.003-4.901-10.292-10.236-12.131-11.776-6.45-6.511-16.78-17.95-12.633-15.937-3.485-5.063-1.714-2.72-1.564-2.85-2.133-4.437-1.954-4.524-1.748-4.591-.972-3.17-.77-3.3-.94-5.058-.729-5.197-.464-5.477-.641-7.902-.61-3.783-.818-3.252-.996-2.883-1.14-2.675-1.716-3.391-1.52-2.393-1.77-2.256-2.027-2.103-1.483-1.28-1.61-1.143-1.765-.958-1.925-.775-2.093-.599-2.227-.392-2.284-.125-2.35.144-2.442.408-2.616.693-3.067 1.05-5.382 2.166-3.954 1.716"/></g><clipPath id="w"><path transform="matrix(1 0 0 -1 0 720)" d="M90 79.2h558v554.4H90z"/></clipPath><g clip-path="url(#w)"><path stroke-linecap="square" stroke-linejoin="round" fill="none" stroke="red" stroke-opacity=".5" d="m541.496 389.954-3.382.209-3.542-.12-3.628-.451-3.613-.783-10.33-2.936-3.223-1.157-3.13-1.322-3.06-1.48-4.443-2.444-4.228-2.581-4.068-2.778-5.373-4.004-5.362-4.241-7.737-6.466-6.379-5.643-8.701-8.232-12.316-11.64-6.341-6.12-5.126-4.58-13.176-11.432-22.27-20.03-3.436-3.41-3.264-3.507-3.093-3.643-3.023-3.957-3.007-4.47-2.832-4.769-1.67-3.215-.722-1.751-.635-1.879-1.02-4.127-.82-4.417-.66-4.64-.345-4.879.03-5.109.43-9.14.23-5.746-.016-3.457-.247-3.115-.483-2.792-.63-2.645-.766-2.525-.958-2.298-1.161-2.05-1.98-2.835-2.175-2.646-2.3-2.509-2.574-2.359-1.93-1.467-2.136-1.365-2.38-1.228-2.66-1.058-2.95-.805-3.263-.45-1.732-.083-1.75.034-1.768.151-3.592.647-5.8 1.445-4.184 1.267-4.425 1.67-4.53 2.049-4.153 2.311-7.663 4.91-1.95 1.157"/></g><clipPath id="x"><path transform="matrix(1 0 0 -1 0 720)" d="M90 79.2h558v554.4H90z"/></clipPath><g clip-path="url(#x)"><path stroke-linecap="square" stroke-linejoin="round" fill="none" stroke="red" stroke-opacity=".5" d="m537.056 374.5-3.37-.194-3.313-.377-3.256-.574-3.195-.789-3.125-.99-3.036-1.17-2.946-1.36-2.858-1.565-4.105-2.64-3.87-2.812-3.749-2.985-4.895-4.23-23.633-21.129-10.74-9.455-7.487-6.75-11.55-10.43-3.802-3.064-6.38-4.88-6.603-4.827-12.801-8.91-7.232-4.383-2.815-1.887-2.77-2.04-2.683-2.218-2.57-2.412-2.47-2.685-2.376-3.013-2.192-3.312-1.93-3.59-.858-1.96-.773-2.176-.687-2.394-.6-2.61-.502-2.776-.375-2.83-.245-2.877-.116-2.925.026-2.965.217-2.974.412-2.98.609-2.984 2.333-8.492 3.238-11.35.822-3.87.532-3.908.248-3.936-.002-3.695-.264-3.413-.645-3.153-1.046-2.896-1.386-2.632-1.704-2.371-1.916-2.182-2.093-2.018-2.303-1.91-2.527-1.823-2.786-1.654-3.065-1.439-3.248-1.262-3.364-1.112-3.527-.841-3.736-.452-1.957-.071-2.04.049-2.122.17-4.483.693-4.743 1.083-7.59 2.192-20.038 5.65-5.675 1.979-5.1 2.201-8.759 4.146"/></g><clipPath id="y"><path transform="matrix(1 0 0 -1 0 720)" d="M90 79.2h558v554.4H90z"/></clipPath><g clip-path="url(#y)"><path stroke-linecap="square" stroke-linejoin="round" fill="none" stroke="red" stroke-opacity=".5" d="m533.066 360.67-3.348-.308-3.198-.472-1.544-.33-1.508-.462-1.472-.594-1.437-.727-2.752-1.736-2.565-1.953-3.568-3.194-3.352-3.296-5.344-5.601-7.103-7.779-6.087-6.592-4.138-4.173-5.436-5.004-13.156-11.85-7.629-6.103-7.749-6.31-17.55-14.56-2.412-1.601-2.6-1.317-2.847-1.06-3.16-.833-3.38-.777-3.463-.975-10.615-3.316-3.629-1.526-1.834-.912-1.785-1.054-1.716-1.208-1.649-1.362-1.578-1.516-1.468-1.662-1.336-1.805-1.206-1.947-1.074-2.089-.95-2.27-.832-2.479-.712-2.689-.594-2.898-.404-3.056-.119-3.14.167-3.225.453-3.309.733-3.307.997-3.112 1.262-2.907 1.527-2.704 1.753-2.521 1.839-2.418 1.91-2.322 5.853-6.527 1.636-2.188 1.425-2.217 2.394-4.511 3.445-6.884 2.003-4.621 1.552-4.609.568-2.326.386-2.372.203-2.42.02-2.465-.148-2.477-.3-2.44-.451-2.401-.602-2.363-.766-2.281-.964-2.094-1.162-1.901-1.36-1.71-3.109-3.005-3.264-2.74-1.691-1.27-1.774-1.173-1.864-1.073-1.954-.972-4.169-1.66-4.478-1.339-4.755-1.045-4.903-.852-5.015-.656-5.003-.389-5-.11-5.209.166-5.459.453-2.805.384-5.743 1.122-5.814 1.563-5.651 1.934-5.56 2.129-5.688 1.85-5.865 1.552-6.179 1.269-15.95 2.67"/></g><clipPath id="z"><path transform="matrix(1 0 0 -1 0 720)" d="M90 79.2h558v554.4H90z"/></clipPath><g clip-path="url(#z)"><path stroke-linecap="square" stroke-linejoin="round" fill="none" stroke="red" stroke-opacity=".5" d="m528.323 347.095-1.238-.78-1.1-.934-.96-1.09-1.567-2.57-1.583-2.533-14.474-20.553-7.402-10.351-1.95-2.066-2.214-1.782-4.65-3.34-9.381-6.725-24.217-17.449-2.494-2.126-2.277-2.27-2.039-2.423-5.578-6.993-2.012-1.9-1.088-.835-1.174-.744-1.257-.654-2.742-1.084-5.881-2.113-1.82-.194-2.084.096-2.35.385-5.15 1.18-5.21 1.005-2.613.395-2.568.103-2.515-.225-2.463-.553-2.401-.87-2.25-1.08-2.073-1.259-1.897-1.436-1.716-1.62-1.447-1.933-1.135-2.308-.824-2.684-.512-3.059-.236-3.14.014-2.993.263-2.845.514-2.697.9-2.512 1.477-2.277 2.053-2.04 2.631-1.806 11.955-6.614 14.515-8.264 2.677-1.952 2.447-2.297 2.217-2.641 3.975-6.063 6.085-9.616 1.809-3.308 1.432-3.35 1.054-3.39.677-3.43.314-3.412-.037-3.34-.387-3.27-.738-3.2-1.001-3.142-1.136-3.106-1.27-3.071-1.403-3.035-1.552-2.973-1.74-2.845-1.93-2.716-2.121-2.585-2.297-2.443-2.418-2.247-2.533-2.046-2.649-1.846-2.757-1.649-2.82-1.479-2.874-1.314-2.926-1.15-8.909-3.048-8.768-3.274-2.89-.736-2.875-.467-2.86-.199-5.9.003-6.285.283-12.578.77-8.987.373-8.727.299-2.734.284-2.631.4-2.538.52-2.503.691-2.482.868-2.46 1.047-9.729 4.964-4.898 2.406-2.549 1.079-2.625.984-2.702.89"/></g><clipPath id="A"><path transform="matrix(1 0 0 -1 0 720)" d="M90 79.2h558v554.4H90z"/></clipPath><g clip-path="url(#A)"><path stroke-linecap="square" stroke-linejoin="round" fill="none" stroke="red" stroke-opacity=".5" d="m405.724 615.202 1.756-1.055 1.648-.685.781-.29.747-.428.712-.57 1.33-1.527 1.982-2.306 1.394-1.362 1.564-1.11 2.605-1.313 12.757-5.42 20.075-8.689 2.237-1.142 2.309-1.37 19.752-13 2.769-2.146 2.677-2.424 2.615-2.657 7.743-8.35 24.353-25.968 2.478-3.342 1.117-1.81 1.028-1.939.941-2.065 6.171-15.505 13.06-31.94 1.92-4.585.767-2.28.632-2.274.496-2.269.376-2.28.26-2.298.144-2.316.171-9.253.598-13.994.39-7.406.249-4.994v-4.883l-.108-2.386-.239-2.295-.376-2.2-.513-2.102-2.889-9.553-5.098-17.813-7.708-26.709-1.08-2.33-1.087-2.509-.907-2.965"/></g><clipPath id="B"><path transform="matrix(1 0 0 -1 0 720)" d="M90 79.2h558v554.4H90z"/></clipPath><g clip-path="url(#B)"><path stroke-linecap="square" stroke-linejoin="round" fill="none" stroke="red" stroke-opacity=".5" d="m395.294 614.596 1.442-3.812 1.454-3.393 1.476-2.964 1.508-2.525 2.32-3.2 2.404-2.809 2.576-2.544 2.749-2.352 2.91-2.194 4.048-2.69 6.742-4.19 14.394-8.807 2.916-2.028 18.573-14.008 3.527-2.952 3.546-3.25 5.916-5.829 12.374-12.677 3.78-4.072 3.597-4.298 3.41-4.55 4.325-6.38 3.129-4.956 3.01-5.134 2.815-5.24 2.62-5.359 2.457-5.558 2.349-5.921 2.165-6.109 1.283-4.123 1.071-4.143 1.266-6.246.977-6.288 1.05-8.54.498-6.363.315-8.272.215-14.365-.165-4.018-.31-3.913-.7-5.666-1.313-9.093-2.329-13.38-2.153-11.858-2-10.455-.438-3.26-.29-3.41-.023-3.65.31-3.938.702-4.224 1.138-4.505"/></g><clipPath id="C"><path transform="matrix(1 0 0 -1 0 720)" d="M90 79.2h558v554.4H90z"/></clipPath><g clip-path="url(#C)"><path stroke-linecap="square" stroke-linejoin="round" fill="none" stroke="red" stroke-opacity=".5" d="m385.066 614.804 1.06-3.925 1.226-3.815 2.012-5.388 2.09-4.864 1.475-2.964 2.315-4.08 2.41-3.734 2.572-3.522 2.745-3.302 2.892-3.08 3.978-3.864 5.024-4.48 7.948-6.936 9.712-8.608 10.22-8.678 4.143-3.852 4.28-4.271 6.386-6.687 11.832-12.945 3.014-3.758 3.812-5.106 5.693-8.053 4.926-7.325 2.913-4.658 2.788-4.81 1.768-3.394 2.464-5.34 2.108-5.347 1.824-5.403 1.057-3.654.888-3.697 1.054-5.592.794-5.59.604-5.646.591-7.59 1.24-19.344.166-9.383-.033-5.555-.279-5.514-.756-12.363-.66-13.82-.372-17.738.22-3.721.418-3.825.757-3.965 1.177-4.126 2.208-6.279.806-2.087"/></g><clipPath id="D"><path transform="matrix(1 0 0 -1 0 720)" d="M90 79.2h558v554.4H90z"/></clipPath><g clip-path="url(#D)"><path stroke-linecap="square" stroke-linejoin="round" fill="none" stroke="red" stroke-opacity=".5" d="m374.585 614.929 1.286-5.964 1.6-5.924 1.872-5.73 2.618-7.245 1.412-3.402 1.544-3.23 2.45-4.566 2.579-4.267 2.75-4.018 2.865-3.832 5.803-7.287 5.883-6.95 8.844-10.117 3.843-4.251 7.701-8.062 4.73-4.868 8.826-9.44 3.985-4.783 7.61-9.535 6.57-8.618 3.746-5.277 2.68-4.09 2.52-4.192 2.287-4.265 2.81-5.854 6.432-14.107 1.856-4.952 2.732-8.267.927-3.33.764-3.427.614-3.572.671-5.651 3.01-29.81.49-7.253.669-16.009 1.157-26.194.48-5.494.703-5.553.747-3.82 1.062-3.956 1.373-4.071 1.678-4.174 3.433-8.249"/></g><clipPath id="E"><path transform="matrix(1 0 0 -1 0 720)" d="M90 79.2h558v554.4H90z"/></clipPath><g clip-path="url(#E)"><path stroke-linecap="square" stroke-linejoin="round" fill="none" stroke="red" stroke-opacity=".5" d="m362.988 615.056 2.751-12.992 1.17-4.127 3.27-9.791 3.256-9.204 1.44-3.505 2.382-5.061 2.58-4.88 3.55-6.189 2.755-4.426 3.823-5.731 4.901-6.96 4.847-6.523 6.575-8.567 7.45-9.565 3.75-4.67 12.604-14.933 5.46-7.085 3.44-4.746 3.334-5.051 2.414-4.032 2.28-4.169 5.767-11.446 3.617-7.414 3.343-7.342 3.094-7.328 2.955-7.564 1.641-4.82 1.37-4.96 1.114-4.998 1.548-8.459 1.111-7.102 3.705-26.996 1.201-10.922 2-18.634.788-5.54 1.51-9.16 1.079-5.652 1.008-3.91 1.36-4.053 3.076-8.025 3.001-7.341"/></g><clipPath id="F"><path transform="matrix(1 0 0 -1 0 720)" d="M90 79.2h558v554.4H90z"/></clipPath><g clip-path="url(#F)"><path stroke-linecap="square" stroke-linejoin="round" fill="none" stroke="red" stroke-opacity=".5" d="m350 615.21 1.575-6.939 1.91-9.001 1.741-6.573 1.342-4.307 5.585-16.205 2.283-5.747 2.562-5.523 3.5-6.928 5.29-10.056 2.769-4.856 2.867-4.641 10.404-16.099 3.593-5.213 6.487-8.807 11.444-15.404 10.606-15.33 2.413-3.816 3.674-6.387 3.58-6.657 2.732-5.662 2.657-6.05 3.227-7.86 2.307-6.38 4.664-13.94 2.437-7.794 2.858-9.523 2.435-8.016 1.21-4.863.967-5.101 2.336-14.127 6.943-40.685 1.645-7.111 1.954-7.43 1.806-5.597 3.254-8.977 1.95-5.246"/></g><clipPath id="G"><path transform="matrix(1 0 0 -1 0 720)" d="M90 79.2h558v554.4H90z"/></clipPath><g clip-path="url(#G)"><path stroke-linecap="square" stroke-linejoin="round" fill="none" stroke="red" stroke-opacity=".5" d="m334.913 615.6 5.718-22.775 1.448-4.66 3.136-8.92 6.713-19 2.558-6.253 2.748-6.019 3.565-7.222 6.848-13.242 3.64-6.447 6.759-11.256 6.64-10.792 4.744-7.098 13.246-19.756 2.509-4.062 3.782-6.684 6.464-12.064 3.42-6.784 3.164-6.866 6.976-15.737 1.873-4.755 1.72-5.055 1.992-6.921 12.105-43.643 1.539-6.826 4.557-22.041 2.56-13.537 2.139-8.9 1.384-5.088 1.598-5 5.478-15.256"/></g><clipPath id="H"><path transform="matrix(1 0 0 -1 0 720)" d="M90 79.2h558v554.4H90z"/></clipPath><g clip-path="url(#H)"><path stroke-linecap="square" stroke-linejoin="round" fill="none" stroke="red" stroke-opacity=".5" d="m321.594 606.458 1.567-6.852 1.184-4.56 1.382-4.459 2.4-6.52 4.77-13.145 3.778-10.59 2.354-6.058 2.535-5.958 3.673-7.916 11.202-23.599 3.414-6.834 3.65-6.706 6.667-11.621 7.65-13.075 9.378-15.403 3.913-7.25 5.944-11.27 3.45-7.037 3.84-8.465 8.59-19.286 2.407-6.299 3.923-11.052 3.28-9.538 1.924-6.48 6.379-22.991 4.05-15.674 3.999-16.224 1.218-6.658 1.709-9.738 1.449-6.51.907-3.3 2.177-6.695 2.858-8.607 1.89-4.883 1.374-3.052"/></g><clipPath id="I"><path transform="matrix(1 0 0 -1 0 720)" d="M90 79.2h558v554.4H90z"/></clipPath><g clip-path="url(#I)"><path stroke-linecap="square" stroke-linejoin="round" fill="none" stroke="red" stroke-opacity=".5" d="m306.73 600.843 2.14-7.434 2.349-7.222 3.188-8.96 4.05-10.707 9.26-22.623 3.526-7.901 4.663-9.828 14.474-29.828 7.877-15.37 4.603-8.23 4.754-8.063 2.893-4.893 2.653-4.894 3.218-6.485 4.422-9.464 4.3-9.312 7.99-16.618 3.12-7.73 2.37-6.444 5.61-16.43 2.535-8.078 4.756-16.142 9.264-32.304 2.845-10.203 1.567-5.704 1.35-5.82 3.09-14.085 1.473-4.927 1.769-5.234 1.465-3.665 2.547-5.59 2.697-5.316 1.85-3.262.937-1.534"/></g><clipPath id="J"><path transform="matrix(1 0 0 -1 0 720)" d="M90 79.2h558v554.4H90z"/></clipPath><g clip-path="url(#J)"><path stroke-linecap="square" stroke-linejoin="round" fill="none" stroke="red" stroke-opacity=".5" d="m291.155 595.134 2.163-7.337 2.433-7.421 2.603-7.24 2.709-6.923 5.407-12.863 3.8-8.326 11.519-24.713 6.425-14.04 7.286-15.211 2.81-5.476 4.847-8.774 3.72-6.783 15.999-30.23 4.25-8.185 4.089-8.37 2.967-6.653 3.317-8.127 7.056-17.887 3.013-8.297 2.77-8.326 3.161-10.145 3.57-11.487 4.635-14.268 1.256-4.696 1.791-7.865 4.206-20.258 1.572-8.087 1.544-6.28 1.683-5.94 1.923-5.781 2.674-7.786 1.301-3.04 1.601-3.27 2.962-5.366 2.332-3.928"/></g><clipPath id="K"><path transform="matrix(1 0 0 -1 0 720)" d="M90 79.2h558v554.4H90z"/></clipPath><g clip-path="url(#K)"><path stroke-linecap="square" stroke-linejoin="round" fill="none" stroke="red" stroke-opacity=".5" d="m274.798 586.584 3.822-9.078 2.762-7.116 2.676-7.221 2-4.712 4.217-8.95 3.018-6.352 4.738-10.754 2.914-6.473 14.993-31.273 9.591-18.91 4.311-7.504 5.118-9.032 2.78-5.219 2.494-5.211 3.302-6.888 3.492-6.74 6.345-12.018 8.52-16.866 3.956-8.454 4.397-9.751 1.996-4.819 2.463-6.708 3.534-10.381 3.543-10.3 2.828-8.43 2.477-8.31 2.015-6.702 1.553-5.045 1.232-4.83.927-4.7 1.12-6.089 2.22-11.2.765-5.153 1.157-10.67.34-5.377.79-17.886.47-3.001.522-2.138"/></g><clipPath id="L"><path transform="matrix(1 0 0 -1 0 720)" d="M90 79.2h558v554.4H90z"/></clipPath><g clip-path="url(#L)"><path stroke-linecap="square" stroke-linejoin="round" fill="none" stroke="red" stroke-opacity=".5" d="m259.217 575.154 3.292-6.36 4.192-8.654 6.451-13.62 27.19-56.117 6.68-14.49 3.08-6.065 5.473-10.083 4.189-7.836 4.908-9.279 7.345-13.905 5.41-10.125 6.29-11.276 12.782-22.699 2.529-5.142 5.36-11.56L366.53 363l1.966-5.101 4.826-14.071 2.27-7.014 1.445-5.205 2.838-10.328 2.828-10.14 1.118-4.797 1.073-5.936 1.062-7.045.648-5.527.405-5.43.108-5.212-.171-4.955-.496-5.983-.495-6.171-.329-6.794.02-4.355.265-4.591.376-3.135.738-2.901 1.087-2.645 1.305-2.396.728-1.104"/></g><clipPath id="M"><path transform="matrix(1 0 0 -1 0 720)" d="M90 79.2h558v554.4H90z"/></clipPath><g clip-path="url(#M)"><path stroke-linecap="square" stroke-linejoin="round" fill="none" stroke="red" stroke-opacity=".5" d="m244.633 562 7.866-14.365 13.517-24.052 5.557-10.89 6.633-13.2 4.449-8.571 3.141-6.524 6.794-15.066 11.714-24.645 14.776-28.502 2.825-5.213 2.96-5.01 3.039-4.725 5.971-9.107 3.783-6.243 7.685-13.219 5.473-9.836 3.379-6.438 6.676-13.752 2.295-5.176 2.074-5.105 2.491-6.832 2.243-6.887 2.015-6.867 3.209-11.7 1.053-4.84.723-4.875 1.108-9.71.587-6.292.153-4.758.278-14.892.383-8.033.545-5.76.734-4.211 1.117-4.667.713-2.298.817-2.218.923-2.138 1.027-2.039 1.13-1.855 1.23-1.662 1.333-1.468 1.437-1.281 1.554-1.143 1.675-1.016 1.795-.89 1.913-.76 1.969-.605 2.003-.441 2.037-.278 4.205-.142 4.494.079 2.362.106"/></g><clipPath id="N"><path transform="matrix(1 0 0 -1 0 720)" d="M90 79.2h558v554.4H90z"/></clipPath><g clip-path="url(#N)"><path stroke-linecap="square" stroke-linejoin="round" fill="none" stroke="red" stroke-opacity=".5" d="m229.813 548.63 8.273-12.667 7.043-10.905 5.15-8.866 4.976-8.776 5.938-11.183 9.138-17.52 9.314-19.182 5.584-12.547 3.802-8.022 4.923-9.822 5.212-9.878 10.245-18.631 5.84-10.098 3.996-6.358 6.233-9.289 6.358-9.581 5.123-8.253 11.845-19.438 3.545-6.691 4.325-8.459 2.262-4.987 2.012-4.932 3.2-8.496 2.303-6.86 2.048-6.852 1.281-5.19 1.038-5.152 1.108-6.86 1.233-9.14 1.123-10.238 1.033-9.126.714-4.845.952-5.147 1.178-5.15 1.396-4.941 1.635-4.733 1.896-4.53 1.063-2.164 1.17-2.05 1.277-1.935 1.385-1.821 3.087-3.448 3.508-3.387 1.912-1.651 2.024-1.53 2.135-1.4 2.247-1.267 2.366-1.141 2.535-1.047 2.717-.96 2.896-.874 6.177-1.486 6.183-1.13 6.046-.776 5.465-.422 2.494-.079"/></g><clipPath id="O"><path transform="matrix(1 0 0 -1 0 720)" d="M90 79.2h558v554.4H90z"/></clipPath><g clip-path="url(#O)"><path stroke-linecap="square" stroke-linejoin="round" fill="none" stroke="red" stroke-opacity=".5" d="m217.899 531.63 7.72-9.555 3.048-4.152 2.952-4.405 4.163-6.694 10.095-17.317 3.613-6.318 10.431-19.267 3.144-6.171 3.939-8.332 10.492-22.867 12.968-26.348 3.292-5.86 4.415-7.273 7.602-11.945 4.524-6.59 16.212-23.08 3.328-4.696 4.43-6.155 12.223-17.91 3.92-6.427 2.827-4.886 2.536-4.924 2.273-4.948 2.065-5.094 1.913-5.425 2.257-7.113 2.026-6.966 1.335-5.642 1.16-6.126 4.322-25.692 1.823-9.528 2.01-9.663 1.278-4.87 1.563-4.874.94-2.416 2.217-4.78 1.295-2.37 1.45-2.375 1.603-2.379 1.76-2.381 1.904-2.372 2.029-2.325 2.15-2.277 2.273-2.228 2.39-2.16 2.48-2.001 2.569-1.832 2.657-1.663 8.427-4.534 11.856-6.125 16.127-8.141"/></g><clipPath id="P"><path transform="matrix(1 0 0 -1 0 720)" d="M90 79.2h558v554.4H90z"/></clipPath><g clip-path="url(#P)"><path stroke-linecap="square" stroke-linejoin="round" fill="none" stroke="red" stroke-opacity=".5" d="m207.276 514.393 4.821-5.618 4.93-5.646 3.06-3.988 2.87-4.143 2.71-4.218 6.52-10.88 9.869-16.591 2.162-4.112 2.004-4.208 14.516-31.786 4.965-10.23 6.857-14.105 5.012-10.111 3.217-6.057 2.31-3.816 3.638-5.467 7.39-10.535 4.937-6.754 7.338-9.621 9.193-11.435 4.708-5.469 10.732-12.327 5.268-6.563 9.544-12.14 2.922-4.485 2.68-4.63 1.661-3.267 3.173-6.936 4.878-11.111 1.376-3.906 1.112-4.042.982-4.233 2.21-11.234.82-4.58.644-4.492 1.433-11.17.786-7.104 1.544-17.17.95-5 1.376-5.128 1.852-5.267 1.106-2.654 1.229-2.609 1.351-2.562 3.069-5.02 3.522-5.223 3.958-5.499 4.226-5.273 4.432-4.873 4.53-4.529 11.053-10.513 2.004-2.156 1.876-2.181 1.72-2.207 1.563-2.233 1.408-2.258"/></g><clipPath id="Q"><path transform="matrix(1 0 0 -1 0 720)" d="M90 79.2h558v554.4H90z"/></clipPath><g clip-path="url(#Q)"><path stroke-linecap="square" stroke-linejoin="round" fill="none" stroke="red" stroke-opacity=".5" d="m200.442 494.56 4.57-5.415 4.622-5.284 2.925-3.693 2.777-3.825 2.621-3.907 3.672-6.002 3.413-6.145 3.19-6.235 1.974-4.22 2.708-6.432 13.63-32.944 3.59-8.13 2.798-5.934 4.97-9.883 7.303-14.125 3.36-5.879 2.47-3.847 2.63-3.75 2.74-3.58 5.677-6.844 4.326-4.96 5.766-6.208 8.288-8.65 4.025-3.98 10.48-9.942 11.814-11.783 6.948-6.508 4.356-4.303 3.156-3.591 3.163-3.985 2.093-2.874 1.984-3.038 7.212-12.094 1.902-3.858.848-2.007 1.414-4.204 1.07-4.43 1.347-6.77.732-4.536.565-4.503.606-6.787.374-6.883.044-4.51-.13-4.495-.295-4.66-.537-7.27-.173-4.983-.015-5.087.141-5.191.358-5.261.63-5.3.448-2.633.594-2.558.74-2.484.887-2.408 2.133-4.78 2.51-4.973 4.105-7.753 11.652-23.07 2.272-4.932 2.02-4.935.914-2.47"/></g><clipPath id="R"><path transform="matrix(1 0 0 -1 0 720)" d="M90 79.2h558v554.4H90z"/></clipPath><g clip-path="url(#R)"><path stroke-linecap="square" stroke-linejoin="round" fill="none" stroke="red" stroke-opacity=".5" d="m195.325 477.738 5.847-7.015 2.83-3.632 2.704-3.804 2.513-3.938 2.206-4 1.916-4.085 1.662-4.218 5.076-15.062 7.02-21.662 4.502-12.252 3.279-8.11 4.39-10.047 4.516-9.897 1.94-4.002 2.13-3.948 2.326-3.88 2.486-3.795 3.972-5.54 5.441-7.184 6.721-8.543 4.182-4.896 2.933-3.081 4.602-4.368 4.743-4.168 4.66-3.815 4.511-3.434 7.076-5.222 4.06-3.064 5.696-3.888 8.426-5.697 15.974-11.454 3.627-3.025 2.461-2.259 2.393-2.549 3.528-4.305 2.373-3.133 2.265-3.509 2.088-3.973.914-2.115.776-2.161.639-2.209.914-4.526.697-4.507.515-4.493.273-4.721.014-4.96-.286-4.784-.593-4.516-.876-4.494-1.144-4.554-2.022-6.945-4.939-15.77-1.03-4.397-.727-4.475-.385-4.616-.014-4.719.39-4.77.758-4.837 1.06-4.926 1.317-4.985 1.48-4.978 3.066-9.835 3.388-11.884 2.392-9.147"/></g><clipPath id="S"><path transform="matrix(1 0 0 -1 0 720)" d="M90 79.2h558v554.4H90z"/></clipPath><g clip-path="url(#S)"><path stroke-linecap="square" stroke-linejoin="round" fill="none" stroke="red" stroke-opacity=".5" d="m191.004 463.35 1.741-1.749 1.628-1.823 1.517-1.897 1.404-1.97 1.263-2.035 1.072-2.082.882-2.13.691-2.176 1.482-6.528 1.151-6.325 3.012-17.83 1.037-4.502 2.433-8.825 3.315-11.284 1.454-4.507 1.56-4.34 2.552-6.288 2.812-6.18 8.943-18.959 2.106-3.947 2.243-3.787 2.416-3.651 3.924-5.336 5.699-7.105 7.378-8.853 12.598-14.483 4.255-4.393 2.843-2.696 2.997-2.396 3.157-2.086 3.215-1.81 19.606-9.65 13.149-5.149 5.796-2.123 4.471-1.642 4.432-1.89 2.842-1.423 2.757-1.596 2.701-1.848 2.659-2.112 2.644-2.405 1.313-1.318 1.244-1.474 1.157-1.653 1.07-1.833.98-2.01.857-2.106.713-2.164.569-2.22.742-4.575.405-4.556.08-4.505-.12-2.24-.235-2.232-.35-2.224-.478-2.208-.634-2.169-.79-2.127-.95-2.087-2.285-4.06-2.657-3.93-2.938-3.765-2.996-3.522-7.561-8.463-2.925-3.532-2.774-3.656-1.28-1.874-1.142-1.904-1.005-1.934-.868-1.963-.706-2.014-.506-2.097-.304-2.18-.102-2.262.223-4.666.557-4.712.837-4.762 1.568-7.27 5.008-21.042 2.295-9.065.854-3.212"/></g><clipPath id="T"><path transform="matrix(1 0 0 -1 0 720)" d="M90 79.2h558v554.4H90z"/></clipPath><g clip-path="url(#T)"><path stroke-linecap="square" stroke-linejoin="round" fill="none" stroke="red" stroke-opacity=".5" d="m189.5 446.636.493-2.096.3-2.027.106-1.957-.276-3.74-.213-3.764-.126-20.939.128-2.311.252-2.305.375-2.298 1.575-6.877 2.739-11.586 1.025-4.728 1.28-4.635 1.587-4.525 1.918-4.477 3.38-6.702 4.497-9.206 8.77-18.16 1.198-2.078 1.276-1.947 2.76-3.575 4.422-5.175 6.004-6.864 14.825-17.238 8.355-9.745 2.661-3.224 2.812-2.946 1.47-1.36 1.51-1.243 1.546-1.096 1.583-.95 3.255-1.53 4.81-2.279 10.779-5.325 2.983-1.16 2.984-.865 3.002-.547 5.9-.994 17.47-3.118 17.208-3.033 1.861-.671 1.762-.863 1.654-1.054 1.412-1.244 1.132-1.432.852-1.62.574-1.807.395-1.945.267-2.06.138-2.175.116-6.753.66-5.898-.318-1.708-.8-1.566-1.284-1.423-3.482-2.617-4.032-2.562-8.331-4.893-19.57-11.9-1.784-1.419-1.607-1.579-1.428-1.739-4.237-6.017-2.98-4.602-1.335-2.386-1.192-2.424-1.049-2.462-.875-2.518-.625-2.62-.369-2.724-.113-2.83.187-8.608-.047-5.512.272-2.68.637-2.629 1.001-2.576 1.35-2.52 2.812-4.707 5.312-8.561 2.512-4.95"/></g></svg>